<svg viewBox="0 0 106 143" fill="none" xmlns="http://www.w3.org/2000/svg">
<path d="M27.4611 134.027C35.8684 129.012 41.9857 121.244 46.5393 112.564C53.504 99.2866 59.2762 77.1576 43.2169 66.8562C36.6445 62.6402 27.5251 64.5658 22.5831 68.9558C20.0439 71.467 17.1162 76.4815 19.202 80.028C21.6947 84.2662 30.7803 84.9502 34.1138 84.5931C47.9998 83.1057 60.1648 74.8265 63.6764 60.8067C67.3818 46.0128 59.6856 33.0321 49.3278 23.5048C46.9389 21.3075 43.7038 19.6787 46.0639 16.2551C47.7093 13.8682 50.1926 11.6611 52.1419 9.48382" stroke="#959595" stroke-width="3" stroke-linecap="round"/>
<path d="M45.6129 6.5799C47.3102 6.49878 49.0258 5.84647 50.6183 5.3342C50.8357 5.26426 54.8628 3.4847 55.4936 3.70959C55.7712 3.80853 56.2575 11.4772 56.3641 12.273" stroke="#959595" stroke-width="3" stroke-linecap="round"/>
</svg>
