<svg viewBox="0 0 18 18" fill="none" xmlns="http://www.w3.org/2000/svg">
<path d="M9.00002 0.00292969C6.55575 0.00292969 6.24926 0.0132901 5.28931 0.0570896C4.33137 0.100818 3.67712 0.252937 3.10462 0.475436C2.51279 0.705437 2.01088 1.01318 1.51055 1.51351C1.01021 2.01385 0.702472 2.51576 0.47247 3.10759C0.249972 3.68005 0.0978523 4.3343 0.0541242 5.29224C0.0103247 6.25219 0 6.55868 0 9.00295C0 11.4472 0.0103247 11.7537 0.0541242 12.7136C0.0978523 13.6716 0.249972 14.3258 0.47247 14.8983C0.702472 15.4901 1.01021 15.992 1.51055 16.4924C2.01088 16.9927 2.51279 17.3005 3.10462 17.5305C3.67712 17.7529 4.33137 17.9051 5.28931 17.9488C6.24926 17.9926 6.55575 18.0029 9.00002 18.0029C11.4443 18.0029 11.7507 17.9926 12.7107 17.9488C13.6686 17.9051 14.3229 17.7529 14.8953 17.5305C15.4872 17.3005 15.9891 16.9927 16.4895 16.4924C16.9898 15.992 17.2975 15.4901 17.5275 14.8983C17.75 14.3258 17.9021 13.6716 17.9458 12.7136C17.9896 11.7537 18 11.4472 18 9.00295C18 6.55868 17.9896 6.25219 17.9458 5.29224C17.9021 4.3343 17.75 3.68005 17.5275 3.10759C17.2975 2.51576 16.9898 2.01385 16.4895 1.51351C15.9891 1.01318 15.4872 0.705437 14.8953 0.475436C14.3229 0.252937 13.6686 0.100818 12.7107 0.0570896C11.7507 0.0132901 11.4443 0.00292969 9.00002 0.00292969ZM9.00002 1.62458C11.4031 1.62458 11.6878 1.63373 12.6368 1.67703C13.5143 1.71708 13.9908 1.8637 14.3079 1.98691C14.728 2.15018 15.0278 2.34524 15.3428 2.66016C15.6577 2.97508 15.8528 3.27493 16.016 3.69499C16.1393 4.01212 16.2859 4.48867 16.3259 5.36616C16.3692 6.31517 16.3784 6.59983 16.3784 9.00295C16.3784 11.406 16.3692 11.6907 16.3259 12.6397C16.2859 13.5172 16.1393 13.9937 16.016 14.3109C15.8528 14.731 15.6577 15.0308 15.3428 15.3457C15.0278 15.6607 14.728 15.8557 14.3079 16.0189C13.9908 16.1422 13.5143 16.2888 12.6368 16.3288C11.6879 16.3721 11.4033 16.3813 9.00002 16.3813C6.59672 16.3813 6.31213 16.3721 5.36323 16.3288C4.48574 16.2888 4.00919 16.1422 3.69206 16.0189C3.27196 15.8557 2.97215 15.6607 2.6572 15.3457C2.34227 15.0308 2.14721 14.731 1.98398 14.3109C1.86073 13.9937 1.71411 13.5172 1.67406 12.6397C1.63076 11.6907 1.62162 11.406 1.62162 9.00295C1.62162 6.59983 1.63076 6.31517 1.67406 5.36616C1.71411 4.48867 1.86073 4.01212 1.98398 3.69499C2.14721 3.27493 2.34227 2.97508 2.6572 2.66016C2.97215 2.34524 3.27196 2.15018 3.69206 1.98691C4.00919 1.8637 4.48574 1.71708 5.36323 1.67703C6.31224 1.63373 6.5969 1.62458 9.00002 1.62458Z" fill="#B0B0B0"/>
<path d="M8.99996 12.0409C7.32215 12.0409 5.96205 10.6808 5.96205 9.00299C5.96205 7.32518 7.32215 5.96508 8.99996 5.96508C10.6777 5.96508 12.0378 7.32518 12.0378 9.00299C12.0378 10.6808 10.6777 12.0409 8.99996 12.0409ZM8.99996 4.32298C6.41524 4.32298 4.31995 6.41827 4.31995 9.00299C4.31995 11.5877 6.41524 13.683 8.99996 13.683C11.5847 13.683 13.6799 11.5877 13.6799 9.00299C13.6799 6.41827 11.5847 4.32298 8.99996 4.32298Z" fill="#B0B0B0"/>
<path d="M15.12 3.96294C15.12 4.55942 14.6364 5.04294 14.0399 5.04294C13.4435 5.04294 12.96 4.55942 12.96 3.96294C12.96 3.36646 13.4435 2.88294 14.0399 2.88294C14.6364 2.88294 15.12 3.36646 15.12 3.96294Z" fill="#B0B0B0"/>
</svg>
