<svg viewBox="0 0 48 26" fill="none" xmlns="http://www.w3.org/2000/svg">
<path d="M40.9756 17.4681C40.9756 15.5279 41.5748 13.6354 42.6908 12.0505L48 4.51114V21.3349C48 25.057 43.3171 26.8436 40.9756 24.7592V17.4681Z" fill="#3793FF"/>
<path d="M38.1452 2.89843C40.4287 -0.246593 44.8222 -0.939882 47.9585 1.34993L32.3732 22.8159C30.0898 25.9609 25.6962 26.6542 22.56 24.3644L38.1452 2.89843Z" fill="#3793FF"/>
<path d="M26.7072 2.89843C28.9906 -0.246593 33.3842 -0.939882 36.5204 1.34993L20.9352 22.8159C18.6517 25.9609 14.2582 26.6542 11.1219 24.3644L26.7072 2.89843Z" fill="#3793FF"/>
<path d="M4.6955 17.6843C6.97893 14.5393 11.3725 13.846 14.5087 16.1358L9.81324 22.603C7.5298 25.748 3.13627 26.4413 0 24.1515L4.6955 17.6843Z" fill="#3793FF"/>
</svg>
