<svg viewBox="0 0 24 18" fill="none" xmlns="http://www.w3.org/2000/svg">
<path d="M1.71429 0H10.2857C10.7404 0 11.1764 0.183103 11.4979 0.509028C11.8194 0.834953 12 1.277 12 1.73793C12 2.19886 11.8194 2.64091 11.4979 2.96683C11.1764 3.29276 10.7404 3.47586 10.2857 3.47586H1.71429C1.25963 3.47586 0.823594 3.29276 0.502103 2.96683C0.180612 2.64091 0 2.19886 0 1.73793C0 1.277 0.180612 0.834953 0.502103 0.509028C0.823594 0.183103 1.25963 0 1.71429 0ZM13.7143 13.9034H22.2857C22.7404 13.9034 23.1764 14.0866 23.4979 14.4125C23.8194 14.7384 24 15.1805 24 15.6414C24 16.1023 23.8194 16.5444 23.4979 16.8703C23.1764 17.1962 22.7404 17.3793 22.2857 17.3793H13.7143C13.2596 17.3793 12.8236 17.1962 12.5021 16.8703C12.1806 16.5444 12 16.1023 12 15.6414C12 15.1805 12.1806 14.7384 12.5021 14.4125C12.8236 14.0866 13.2596 13.9034 13.7143 13.9034ZM1.71429 6.95172H22.2857C22.7404 6.95172 23.1764 7.13483 23.4979 7.46075C23.8194 7.78668 24 8.22873 24 8.68966C24 9.15058 23.8194 9.59263 23.4979 9.91856C23.1764 10.2445 22.7404 10.4276 22.2857 10.4276H1.71429C1.25963 10.4276 0.823594 10.2445 0.502103 9.91856C0.180612 9.59263 0 9.15058 0 8.68966C0 8.22873 0.180612 7.78668 0.502103 7.46075C0.823594 7.13483 1.25963 6.95172 1.71429 6.95172Z" fill="#FDFDFD"/>
</svg>
