<svg viewBox="0 0 19 19" fill="none" xmlns="http://www.w3.org/2000/svg">
<path d="M9.5 16.625C13.435 16.625 16.625 13.435 16.625 9.5C16.625 5.56497 13.435 2.375 9.5 2.375C5.56497 2.375 2.375 5.56497 2.375 9.5C2.375 13.435 5.56497 16.625 9.5 16.625Z" stroke="#FDFDFD" stroke-width="1.5" stroke-linecap="round" stroke-linejoin="round"/>
<path d="M15.8976 12.6468L11.8676 10.1679C11.7982 10.1233 11.7195 10.0954 11.6375 10.0863L9.93788 9.85622C9.81108 9.83801 9.68181 9.86238 9.57034 9.9255C9.45886 9.98862 9.37148 10.0869 9.32186 10.205L8.30507 12.4836C8.25727 12.5895 8.24163 12.7072 8.26011 12.822C8.27858 12.9368 8.33034 13.0436 8.40897 13.1293L9.80429 14.6359C9.86736 14.7052 9.91357 14.7882 9.93932 14.8783C9.96507 14.9684 9.96966 15.0633 9.95272 15.1554L9.66327 16.625" stroke="#FDFDFD" stroke-width="1.5" stroke-linecap="round" stroke-linejoin="round"/>
<path d="M4.82421 4.12659L4.15624 5.70002C4.09806 5.83971 4.0954 5.99634 4.14882 6.13791L5.00233 8.40901C5.03569 8.50367 5.09279 8.58818 5.16816 8.65446C5.24353 8.72073 5.33465 8.76655 5.4328 8.78752L7.02108 9.12893C7.10924 9.14676 7.19203 9.18489 7.26288 9.24028C7.33374 9.29568 7.39071 9.36682 7.42929 9.44807L7.71132 10.0344C7.76143 10.1335 7.83772 10.2171 7.93191 10.2759C8.02611 10.3348 8.13462 10.3668 8.24569 10.3684H9.24765" stroke="#FDFDFD" stroke-width="1.5" stroke-linecap="round" stroke-linejoin="round"/>
<path d="M11.3184 2.6051L12.0086 3.85198C12.0723 3.9692 12.0953 4.1043 12.0738 4.23598C12.0523 4.36766 11.9876 4.48845 11.8899 4.57932L9.89338 6.38284C9.85996 6.41475 9.82254 6.44219 9.78206 6.46448L8.86917 6.96917C8.78214 7.01534 8.68561 7.04074 8.58713 7.04338H6.99885C6.88185 7.04398 6.76756 7.0787 6.67 7.1433C6.57244 7.2079 6.49586 7.29957 6.44963 7.40706L5.83362 8.86917" stroke="#FDFDFD" stroke-width="1.5" stroke-linecap="round" stroke-linejoin="round"/>
</svg>
